<?xml version="1.0" encoding="UTF-8" standalone="no" ?>
<!DOCTYPE svg PUBLIC "-//W3C//DTD SVG 1.1//EN" "http://www.w3.org/Graphics/SVG/1.1/DTD/svg11.dtd">
<svg xmlns="http://www.w3.org/2000/svg" xmlns:xlink="http://www.w3.org/1999/xlink" version="1.1" width="512" height="512" viewBox="0 0 512 512" xml:space="preserve">
<desc>Created with Fabric.js 3.6.6</desc>
<defs>
</defs>
<g transform="matrix(1 0 0 1 254.06 252.25)"  >
<g style=""   >
		<g transform="matrix(-0.08 0.04 1.78 3.23 7.78 0.74)"  >
<polygon style="stroke: rgb(0,0,0); stroke-width: 2; stroke-dasharray: ; stroke-linecap: butt; stroke-dashoffset: 0; stroke-linejoin: miter; stroke-miterlimit: 4; fill: rgb(107,79,42); fill-rule: nonzero; opacity: 1;" vector-effect="non-scaling-stroke"  points="-50,-50 -50,50 50,50 50,-50 " />
</g>
		<g transform="matrix(-0.83 0.5 0.5 0.83 -123.03 -38.19)"  >
<path style="stroke: rgb(0,0,0); stroke-width: 2; stroke-dasharray: none; stroke-linecap: butt; stroke-dashoffset: 0; stroke-linejoin: miter; stroke-miterlimit: 4; fill: rgb(229,105,105); fill-rule: nonzero; opacity: 1;"  transform=" translate(-446.67, -266.17)" d="M 345.97701500202044 185.28735982960666 Q 445.28735982960677 221.14942879512387 547.356325346848 192.87356672615837 Q 525.9770150020204 260.4597736227101 546.6666701744342 314.25287707098596 Q 459.0804632778825 357.01149776064113 351.4942563813308 319.7701184502963 L 345.97701500202044 185.28735982960666" stroke-linecap="round" />
</g>
		<g transform="matrix(0.08 0.04 -1.73 3.26 -7.55 0)"  >
<polygon style="stroke: rgb(0,0,0); stroke-width: 2; stroke-dasharray: ; stroke-linecap: butt; stroke-dashoffset: 0; stroke-linejoin: miter; stroke-miterlimit: 4; fill: rgb(107,79,42); fill-rule: nonzero; opacity: 1;" vector-effect="non-scaling-stroke"  points="-50,-50 -50,50 50,50 50,-50 " />
</g>
		<g transform="matrix(0.83 0.49 -0.49 0.83 123.31 -40.27)"  >
<path style="stroke: rgb(0,0,0); stroke-width: 2; stroke-dasharray: none; stroke-linecap: butt; stroke-dashoffset: 0; stroke-linejoin: miter; stroke-miterlimit: 4; fill: rgb(229,229,105); fill-rule: nonzero; opacity: 1;"  transform=" translate(-446.67, -266.17)" d="M 345.97701500202044 185.28735982960666 Q 445.28735982960677 221.14942879512387 547.356325346848 192.87356672615837 Q 525.9770150020204 260.4597736227101 546.6666701744342 314.25287707098596 Q 459.0804632778825 357.01149776064113 351.4942563813308 319.7701184502963 L 345.97701500202044 185.28735982960666" stroke-linecap="round" />
</g>
</g>
</g>
</svg>